g default
v -0.086020 -0.007583 -0.969696
v 0.478154 -0.755823 -0.803681
v -0.078090 -0.755823 -0.908261
v 0.390130 -1.503970 -0.642554
v -0.054590 -1.503970 -0.726167
v 0.507852 -0.007583 -0.858043
v -0.078300 0.744176 -0.909923
v 0.478957 0.744176 -0.805152
v -0.054880 1.496030 -0.728382
v 0.391201 1.496030 -0.644515
v -0.429650 -0.007583 0.858043
v -0.788490 -0.755823 0.392123
v -0.399950 -0.755823 0.803681
v -0.622570 -1.503970 0.313507
v -0.311930 -1.503970 0.642554
v -0.844470 -0.007583 0.418646
v -0.400760 0.744176 0.805152
v -0.790010 0.744176 0.392840
v -0.313000 1.496030 0.644515
v -0.624590 1.496030 0.314464
v -0.860920 -0.755823 -0.169213
v -0.680480 -1.503970 -0.135288
v -0.921800 -0.007583 -0.180659
v -0.862570 0.744176 -0.169523
v -0.682670 1.496030 -0.135701
v -0.589570 -0.755823 -0.665916
v -0.463530 -1.503970 -0.532408
v -0.632090 -0.007583 -0.710958
v -0.590720 0.744176 -0.667134
v -0.465060 1.496030 -0.534033
v 0.039101 -3.000000 0.000000
v 0.039101 3.000000 0.000000
v 0.164218 -0.007583 0.969696
v 0.156292 -0.755823 0.908261
v 0.132796 -1.503970 0.726167
v 0.156506 0.744176 0.909923
v 0.133082 1.496030 0.728382
v 0.866695 -0.755823 -0.392123
v 0.700773 -1.503970 -0.313507
v 0.922673 -0.007583 -0.418646
v 0.868209 0.744176 -0.392840
v 0.702792 1.496030 -0.314464
v 0.939122 -0.755823 0.169213
v 0.758680 -1.503970 0.135288
v 1.000000 -0.007583 0.180659
v 0.940769 0.744176 0.169523
v 0.760875 1.496030 0.135701
v 0.667773 -0.755823 0.665916
v 0.541732 -1.503970 0.532408
v 0.710296 -0.007583 0.710958
v 0.668923 0.744176 0.667134
v 0.543266 1.496030 0.534033
v 0.039101 -3.000000 0.000000
v 0.039101 3.000000 0.000000
vt 0.472944 0.270167
vt 0.477905 0.260077
vt 0.485682 0.267012
vt 0.483226 0.271678
vt 0.488682 0.274199
vt 0.490053 0.275671
vt 0.488215 0.280314
vt 0.484372 0.276880
vt 0.487628 0.253808
vt 0.490292 0.264652
vt 0.328726 0.572681
vt 0.327033 0.335389
vt 0.449540 0.295386
vt 0.469742 0.319692
vt 0.500279 0.254672
vt 0.509366 0.263498
vt 0.499248 0.269153
vt 0.495529 0.265440
vt 0.528769 0.306054
vt 0.503844 0.324140
vt 0.495553 0.292178
vt 0.506233 0.286673
vt 0.648832 0.209934
vt 0.630550 0.297307
vt 0.539850 0.279024
vt 0.534915 0.249552
vt 0.483110 0.290797
vt 0.474345 0.282076
vt 0.489425 0.270457
vt 0.488429 0.272197
vt 0.481153 0.224767
vt 0.512663 0.228579
vt 0.390115 0.182661
vt 0.447681 0.111117
vt 0.455271 0.239557
vt 0.640367 0.000076
vt 0.493260 0.270061
vt 0.491271 0.269650
vt 0.445401 0.266572
vt 0.349036 0.244117
vt 0.511491 0.275705
vt 0.497657 0.278752
vt 0.500036 0.274283
vt 0.492009 0.276040
vt 0.493160 0.280815
vt 0.491440 0.272773
vt 0.000076 0.000076
vt 0.493817 0.275240
vt 0.601252 0.365284
vt 0.543113 0.443177
vt 0.494813 0.273548
vt 0.494605 0.271567
vt 0.491316 0.272716
vt 0.999924 0.517773
vn -0.982718 -0.001300 -0.185103
vn -0.686514 -0.001300 -0.727115
vn -0.677389 -0.161897 -0.717588
vn -0.971011 -0.158302 -0.179102
vn -0.846163 -0.322086 0.424581
vn -0.455680 -0.310687 0.834164
vn -0.470416 -0.158305 0.868129
vn -0.893685 -0.158697 0.419693
vn -0.686514 -0.001300 -0.727115
vn -0.127997 -0.001300 -0.991774
vn -0.123000 -0.158300 -0.979700
vn -0.677389 -0.161897 -0.717588
vn -0.455884 0.309289 0.834571
vn -0.859380 0.309293 0.407191
vn -0.894042 0.156190 0.419873
vn -0.471880 0.153694 0.868163
vn 0.479398 -0.001300 -0.877597
vn 0.903686 -0.001300 -0.428193
vn 0.891803 -0.161801 -0.422502
vn 0.470416 -0.158305 -0.868129
vn 0.680557 0.156190 0.715854
vn 0.124204 0.159005 0.979434
vn 0.127997 -0.001300 0.991774
vn 0.686514 -0.001300 0.727115
vn 0.861692 0.335497 -0.380696
vn 0.934593 0.309298 0.175699
vn 0.970093 0.156199 0.185799
vn 0.893078 0.152996 -0.423089
vn -0.479398 -0.001300 0.877597
vn -0.903686 -0.001300 0.428193
vn -0.893685 -0.158697 0.419693
vn -0.470416 -0.158305 0.868129
vn -0.665208 -0.322104 -0.673608
vn -0.929691 -0.315497 -0.190098
vn -0.971011 -0.158302 -0.179102
vn -0.677389 -0.161897 -0.717588
vn -0.129102 0.158302 -0.978914
vn 0.473224 0.159708 -0.866344
vn 0.479398 -0.001300 -0.877597
vn -0.127997 -0.001300 -0.991774
vn -0.628365 0.335481 -0.701861
vn -0.136503 0.314108 -0.939523
vn -0.129102 0.158302 -0.978914
vn -0.678403 0.152901 -0.718603
vn -0.136503 0.314108 -0.939523
vn 0.455884 0.309289 -0.834571
vn 0.473224 0.159708 -0.866344
vn -0.129102 0.158302 -0.978914
vn 0.455680 -0.310687 -0.834164
vn -0.121600 -0.310699 -0.942698
vn -0.123000 -0.158300 -0.979700
vn 0.470416 -0.158305 -0.868129
vn -0.894042 0.156190 0.419873
vn -0.970170 0.159695 -0.182394
vn -0.982718 -0.001300 -0.185103
vn -0.903686 -0.001300 0.428193
vn -0.859380 0.309293 0.407191
vn -0.934593 0.309298 -0.175699
vn -0.970170 0.159695 -0.182394
vn -0.894042 0.156190 0.419873
vn 0.982776 -0.001300 0.184796
vn 0.686514 -0.001300 0.727115
vn 0.677389 -0.161897 0.717588
vn 0.971011 -0.158302 0.179102
vn -0.455680 -0.310687 0.834164
vn 0.121600 -0.310699 0.942698
vn 0.129801 -0.158401 0.978806
vn -0.470416 -0.158305 0.868129
vn -0.471880 0.153694 0.868163
vn -0.894042 0.156190 0.419873
vn -0.903686 -0.001300 0.428193
vn -0.479398 -0.001300 0.877597
vn -0.121600 -0.310699 -0.942698
vn -0.665208 -0.322104 -0.673608
vn -0.677389 -0.161897 -0.717588
vn -0.123000 -0.158300 -0.979700
vn 0.401518 -0.546225 -0.735134
vn -0.455680 -0.310687 0.834164
vn -0.846163 -0.322086 0.424581
vn 0.401518 -0.546225 -0.735134
vn -0.846163 -0.322086 0.424581
vn -0.929691 -0.315497 -0.190098
vn 0.401518 -0.546225 -0.735134
vn -0.929691 -0.315497 -0.190098
vn -0.665208 -0.322104 -0.673608
vn 0.401518 -0.546225 -0.735134
vn -0.665208 -0.322104 -0.673608
vn -0.121600 -0.310699 -0.942698
vn 0.401518 -0.546225 -0.735134
vn -0.121600 -0.310699 -0.942698
vn 0.455680 -0.310687 -0.834164
vn 0.401693 0.545890 -0.735287
vn 0.455884 0.309289 -0.834571
vn -0.136503 0.314108 -0.939523
vn 0.401693 0.545890 -0.735287
vn -0.136503 0.314108 -0.939523
vn -0.628365 0.335481 -0.701861
vn 0.401693 0.545890 -0.735287
vn -0.628365 0.335481 -0.701861
vn -0.934593 0.309298 -0.175699
vn 0.401693 0.545890 -0.735287
vn -0.934593 0.309298 -0.175699
vn -0.859380 0.309293 0.407191
vn 0.401693 0.545890 -0.735287
vn -0.859380 0.309293 0.407191
vn -0.455884 0.309289 0.834571
vn -0.127997 -0.001300 -0.991774
vn 0.479398 -0.001300 -0.877597
vn 0.470416 -0.158305 -0.868129
vn -0.123000 -0.158300 -0.979700
vn 0.121600 -0.310699 0.942698
vn 0.640298 -0.315599 0.700297
vn 0.677389 -0.161897 0.717588
vn 0.129801 -0.158401 0.978806
vn -0.678403 0.152901 -0.718603
vn -0.129102 0.158302 -0.978914
vn -0.127997 -0.001300 -0.991774
vn -0.686514 -0.001300 -0.727115
vn -0.934593 0.309298 -0.175699
vn -0.628365 0.335481 -0.701861
vn -0.678403 0.152901 -0.718603
vn -0.970170 0.159695 -0.182394
vn 0.127997 -0.001300 0.991774
vn -0.479398 -0.001300 0.877597
vn -0.470416 -0.158305 0.868129
vn 0.129801 -0.158401 0.978806
vn -0.929691 -0.315497 -0.190098
vn -0.846163 -0.322086 0.424581
vn -0.893685 -0.158697 0.419693
vn -0.971011 -0.158302 -0.179102
vn 0.893078 0.152996 -0.423089
vn 0.970093 0.156199 0.185799
vn 0.982776 -0.001300 0.184796
vn 0.903686 -0.001300 -0.428193
vn 0.628365 0.335481 0.701861
vn 0.136503 0.314108 0.939523
vn 0.124204 0.159005 0.979434
vn 0.680557 0.156190 0.715854
vn 0.686514 -0.001300 0.727115
vn 0.127997 -0.001300 0.991774
vn 0.129801 -0.158401 0.978806
vn 0.677389 -0.161897 0.717588
vn 0.640298 -0.315599 0.700297
vn 0.929691 -0.315497 0.190098
vn 0.971011 -0.158302 0.179102
vn 0.677389 -0.161897 0.717588
vn -0.970170 0.159695 -0.182394
vn -0.678403 0.152901 -0.718603
vn -0.686514 -0.001300 -0.727115
vn -0.982718 -0.001300 -0.185103
vn 0.934593 0.309298 0.175699
vn 0.628365 0.335481 0.701861
vn 0.680557 0.156190 0.715854
vn 0.970093 0.156199 0.185799
vn 0.903686 -0.001300 -0.428193
vn 0.982776 -0.001300 0.184796
vn 0.971011 -0.158302 0.179102
vn 0.891803 -0.161801 -0.422502
vn 0.846163 -0.322086 -0.424581
vn 0.455680 -0.310687 -0.834164
vn 0.470416 -0.158305 -0.868129
vn 0.891803 -0.161801 -0.422502
vn 0.473224 0.159708 -0.866344
vn 0.893078 0.152996 -0.423089
vn 0.903686 -0.001300 -0.428193
vn 0.479398 -0.001300 -0.877597
vn 0.455884 0.309289 -0.834571
vn 0.861692 0.335497 -0.380696
vn 0.893078 0.152996 -0.423089
vn 0.473224 0.159708 -0.866344
vn -0.903686 -0.001300 0.428193
vn -0.982718 -0.001300 -0.185103
vn -0.971011 -0.158302 -0.179102
vn -0.893685 -0.158697 0.419693
vn 0.929691 -0.315497 0.190098
vn 0.846163 -0.322086 -0.424581
vn 0.891803 -0.161801 -0.422502
vn 0.971011 -0.158302 0.179102
vn 0.970093 0.156199 0.185799
vn 0.680557 0.156190 0.715854
vn 0.686514 -0.001300 0.727115
vn 0.982776 -0.001300 0.184796
vn 0.136503 0.314108 0.939523
vn -0.455884 0.309289 0.834571
vn -0.471880 0.153694 0.868163
vn 0.124204 0.159005 0.979434
vn -0.401518 -0.546225 0.735134
vn 0.455680 -0.310687 -0.834164
vn 0.846163 -0.322086 -0.424581
vn -0.401518 -0.546225 0.735134
vn 0.846163 -0.322086 -0.424581
vn 0.929691 -0.315497 0.190098
vn -0.401518 -0.546225 0.735134
vn 0.929691 -0.315497 0.190098
vn 0.640298 -0.315599 0.700297
vn -0.401518 -0.546225 0.735134
vn 0.640298 -0.315599 0.700297
vn 0.121600 -0.310699 0.942698
vn -0.401518 -0.546225 0.735134
vn 0.121600 -0.310699 0.942698
vn -0.455680 -0.310687 0.834164
vn -0.401693 0.545890 0.735287
vn -0.455884 0.309289 0.834571
vn 0.136503 0.314108 0.939523
vn -0.401693 0.545890 0.735287
vn 0.136503 0.314108 0.939523
vn 0.628365 0.335481 0.701861
vn -0.401693 0.545890 0.735287
vn 0.628365 0.335481 0.701861
vn 0.934593 0.309298 0.175699
vn -0.401693 0.545890 0.735287
vn 0.934593 0.309298 0.175699
vn 0.861692 0.335497 -0.380696
vn -0.401693 0.545890 0.735287
vn 0.861692 0.335497 -0.380696
vn 0.455884 0.309289 -0.834571
vn 0.124204 0.159005 0.979434
vn -0.471880 0.153694 0.868163
vn -0.479398 -0.001300 0.877597
vn 0.127997 -0.001300 0.991774
g petal:Mesh
usemtl initialShadingGroup
f 23/1/1 28/2/2 26/3/3 21/4/4
f 14/5/5 15/6/6 13/7/7 12/8/8
f 28/2/9 1/9/10 3/10/11 26/3/12
f 19/11/13 20/12/14 18/13/15 17/14/16
f 6/15/17 40/16/18 38/17/19 2/18/20
f 51/19/21 36/20/22 33/21/23 50/22/24
f 42/23/25 47/24/26 46/25/27 41/26/28
f 11/27/29 16/28/30 12/8/31 13/7/32
f 27/29/33 22/30/34 21/4/35 26/3/36
f 7/31/37 8/32/38 6/15/39 1/9/40
f 30/33/41 9/34/42 7/31/43 29/35/44
f 9/34/45 10/36/46 8/32/47 7/31/48
f 4/37/49 5/38/50 3/10/51 2/18/52
f 18/13/53 24/39/54 23/1/55 16/28/56
f 20/12/57 25/40/58 24/39/59 18/13/60
f 45/41/61 50/22/62 48/42/63 43/43/64
f 15/6/65 35/44/66 34/45/67 13/7/68
f 17/14/69 18/13/70 16/28/71 11/27/72
f 5/38/73 27/29/74 26/3/75 3/10/76
f 31/46/77 15/6/78 14/5/79
f 31/46/80 14/5/81 22/30/82
f 31/46/83 22/30/84 27/29/85
f 31/46/86 27/29/87 5/38/88
f 31/46/89 5/38/90 4/37/91
f 32/47/92 10/36/93 9/34/94
f 32/47/95 9/34/96 30/33/97
f 32/47/98 30/33/99 25/40/100
f 32/47/101 25/40/102 20/12/103
f 32/47/104 20/12/105 19/11/106
f 1/9/107 6/15/108 2/18/109 3/10/110
f 35/44/111 49/48/112 48/42/113 34/45/114
f 29/35/115 7/31/116 1/9/117 28/2/118
f 25/40/119 30/33/120 29/35/121 24/39/122
f 33/21/123 11/27/124 13/7/125 34/45/126
f 22/30/127 14/5/128 12/8/129 21/4/130
f 41/26/131 46/25/132 45/41/133 40/16/134
f 52/49/135 37/50/136 36/20/137 51/19/138
f 50/22/139 33/21/140 34/45/141 48/42/142
f 49/48/143 44/51/144 43/43/145 48/42/146
f 24/39/147 29/35/148 28/2/149 23/1/150
f 47/24/151 52/49/152 51/19/153 46/25/154
f 40/16/155 45/41/156 43/43/157 38/17/158
f 39/52/159 4/37/160 2/18/161 38/17/162
f 8/32/163 41/26/164 40/16/165 6/15/166
f 10/36/167 42/23/168 41/26/169 8/32/170
f 16/28/171 23/1/172 21/4/173 12/8/174
f 44/51/175 39/52/176 38/17/177 43/43/178
f 46/25/179 51/19/180 50/22/181 45/41/182
f 37/50/183 19/11/184 17/14/185 36/20/186
f 53/53/187 4/37/188 39/52/189
f 53/53/190 39/52/191 44/51/192
f 53/53/193 44/51/194 49/48/195
f 53/53/196 49/48/197 35/44/198
f 53/53/199 35/44/200 15/6/201
f 54/54/202 19/11/203 37/50/204
f 54/54/205 37/50/206 52/49/207
f 54/54/208 52/49/209 47/24/210
f 54/54/211 47/24/212 42/23/213
f 54/54/214 42/23/215 10/36/216
f 36/20/217 17/14/218 11/27/219 33/21/220
